<mxfile host="app.diagrams.net" modified="2021-09-08T23:21:51.130Z" agent="5.0 (X11; Linux x86_64) AppleWebKit/537.36 (KHTML, like Gecko) Chrome/93.0.4577.63 Safari/537.36" etag="SNfx9kIn0BWo0M1knZtu" version="15.1.2" type="github">
  <diagram id="SwUtY4hIjdzSl-JG2VXt">
    <mxGraphModel dx="796" dy="494" grid="1" gridSize="10" guides="1" tooltips="1" connect="1" arrows="1" fold="1" page="1" pageScale="1" pageWidth="850" pageHeight="1100" math="0" shadow="0">
      <root>
        <mxCell id="0" />
        <mxCell id="1" parent="0" />
      </root>
    </mxGraphModel>
  </diagram>
</mxfile>
